<svg width="20" height="20" viewBox="0 0 20 20" fill="none" xmlns="http://www.w3.org/2000/svg">
<g clip-path="url(#clip0_1_2)">
<path d="M17.3839 4.24107L13.9018 0.758929C13.4888 0.345982 12.6629 0 12.0714 0H2.07143C1.47991 0 1 0.479912 1 1.07143V18.9286C1 19.5201 1.47991 20 2.07143 20H17.0714C17.6629 20 18.1429 19.5201 18.1429 18.9286V6.07143C18.1429 5.47991 17.7969 4.65402 17.3839 4.24107ZM12.4286 1.51786C12.6183 1.58482 12.808 1.68527 12.8862 1.76339L16.3795 5.2567C16.4576 5.33482 16.558 5.52455 16.625 5.71429H12.4286V1.51786ZM16.7143 18.5714H2.42857V1.42857H11V6.07143C11 6.66295 11.4799 7.14286 12.0714 7.14286H16.7143V18.5714ZM5.28571 8.92857V9.64286C5.28571 9.84375 5.44196 10 5.64286 10H13.5C13.7009 10 13.8571 9.84375 13.8571 9.64286V8.92857C13.8571 8.72768 13.7009 8.57143 13.5 8.57143H5.64286C5.44196 8.57143 5.28571 8.72768 5.28571 8.92857ZM13.5 11.4286H5.64286C5.44196 11.4286 5.28571 11.5848 5.28571 11.7857V12.5C5.28571 12.7009 5.44196 12.8571 5.64286 12.8571H13.5C13.7009 12.8571 13.8571 12.7009 13.8571 12.5V11.7857C13.8571 11.5848 13.7009 11.4286 13.5 11.4286ZM13.5 14.2857H5.64286C5.44196 14.2857 5.28571 14.442 5.28571 14.6429V15.3571C5.28571 15.558 5.44196 15.7143 5.64286 15.7143H13.5C13.7009 15.7143 13.8571 15.558 13.8571 15.3571V14.6429C13.8571 14.442 13.7009 14.2857 13.5 14.2857Z" fill="#272733"/>
</g>
<defs>
<clipPath id="clip0_1_2">
<rect width="20" height="20" fill="white"/>
</clipPath>
</defs>
</svg>
